{
    "asset": {
        "version": "1.0",
        "generator": "Open Asset Import Library (assimp v4.1.0)"
    },
    "accessors": {
        "mesh_accessor": {
            "bufferView": "mesh_view",
            "byteOffset": 0,
            "byteStride": 0,
            "componentType": 5126,
            "count": 276,
            "type": "VEC3",
            "max": [
                264.5943603515625,
                -77.52037048339844,
                -0.0
            ],
            "min": [
                111.52762603759766,
                -165.83750915527345,
                -0.7038719654083252
            ]
        },
        "mesh_accessor_0": {
            "bufferView": "mesh_view_0",
            "byteOffset": 0,
            "byteStride": 0,
            "componentType": 5126,
            "count": 276,
            "type": "VEC3",
            "max": [
                0.9999987483024597,
                0.9999952912330627,
                1.0
            ],
            "min": [
                -0.9999997019767761,
                -0.9999691247940064,
                -1.0
            ]
        },
        "mesh_accessor_1": {
            "bufferView": "mesh_view_1",
            "byteOffset": 0,
            "byteStride": 0,
            "componentType": 5126,
            "count": 276,
            "type": "VEC2",
            "max": [
                1.0,
                1.0
            ],
            "min": [
                0.0,
                0.0
            ]
        },
        "mesh_accessor_2": {
            "bufferView": "mesh_view_2",
            "byteOffset": 0,
            "byteStride": 0,
            "componentType": 5123,
            "count": 792,
            "type": "SCALAR",
            "max": [
                275.0
            ],
            "min": [
                0.0
            ]
        },
        "mesh_0_accessor": {
            "bufferView": "mesh_0_view",
            "byteOffset": 0,
            "byteStride": 0,
            "componentType": 5126,
            "count": 30191,
            "type": "VEC3",
            "max": [
                384.26123046875,
                463.1733703613281,
                31.27613067626953
            ],
            "min": [
                -393.260986328125,
                -476.7135925292969,
                -32.42627716064453
            ]
        },
        "mesh_0_accessor_0": {
            "bufferView": "mesh_0_view_0",
            "byteOffset": 0,
            "byteStride": 0,
            "componentType": 5126,
            "count": 30191,
            "type": "VEC3",
            "max": [
                0.9998397827148438,
                0.9996954202651978,
                1.0
            ],
            "min": [
                -0.9995298385620117,
                -0.9998405575752258,
                -0.9999998211860657
            ]
        },
        "mesh_0_accessor_1": {
            "bufferView": "mesh_0_view_1",
            "byteOffset": 0,
            "byteStride": 0,
            "componentType": 5126,
            "count": 30191,
            "type": "VEC2",
            "max": [
                1.0,
                1.0
            ],
            "min": [
                0.0,
                0.0
            ]
        },
        "mesh_0_accessor_2": {
            "bufferView": "mesh_0_view_2",
            "byteOffset": 0,
            "byteStride": 0,
            "componentType": 5123,
            "count": 165120,
            "type": "SCALAR",
            "max": [
                30190.0
            ],
            "min": [
                0.0
            ]
        },
        "mesh_1_accessor": {
            "bufferView": "mesh_1_view",
            "byteOffset": 0,
            "byteStride": 0,
            "componentType": 5126,
            "count": 34492,
            "type": "VEC3",
            "max": [
                404.9275207519531,
                391.5583801269531,
                15.250550270080567
            ],
            "min": [
                -318.1233825683594,
                -255.7984619140625,
                -34.129451751708987
            ]
        },
        "mesh_1_accessor_0": {
            "bufferView": "mesh_1_view_0",
            "byteOffset": 0,
            "byteStride": 0,
            "componentType": 5126,
            "count": 34492,
            "type": "VEC3",
            "max": [
                1.0,
                1.0,
                1.0
            ],
            "min": [
                -1.0,
                -1.0,
                -1.0
            ]
        },
        "mesh_1_accessor_1": {
            "bufferView": "mesh_1_view_1",
            "byteOffset": 0,
            "byteStride": 0,
            "componentType": 5126,
            "count": 34492,
            "type": "VEC2",
            "max": [
                1.0,
                1.0
            ],
            "min": [
                0.0,
                0.0
            ]
        },
        "mesh_1_accessor_2": {
            "bufferView": "mesh_1_view_2",
            "byteOffset": 0,
            "byteStride": 0,
            "componentType": 5123,
            "count": 155826,
            "type": "SCALAR",
            "max": [
                34491.0
            ],
            "min": [
                0.0
            ]
        }
    },
    "buffers": {
        "../../download/w1o2glvpmgqr/w1o2glvpmgqr": {
            "byteLength": 2722164,
            "type": "arraybuffer",
            "uri": "../../download/w1o2glvpmgqr/w1o2glvpmgqr.bin"
        }
    },
    "bufferViews": {
        "mesh_view": {
            "buffer": "../../download/w1o2glvpmgqr/w1o2glvpmgqr",
            "byteOffset": 0,
            "byteLength": 3312,
            "target": 34962
        },
        "mesh_view_0": {
            "buffer": "../../download/w1o2glvpmgqr/w1o2glvpmgqr",
            "byteOffset": 3312,
            "byteLength": 3312,
            "target": 34962
        },
        "mesh_view_1": {
            "buffer": "../../download/w1o2glvpmgqr/w1o2glvpmgqr",
            "byteOffset": 6624,
            "byteLength": 2208,
            "target": 34962
        },
        "mesh_view_2": {
            "buffer": "../../download/w1o2glvpmgqr/w1o2glvpmgqr",
            "byteOffset": 8832,
            "byteLength": 1584,
            "target": 34963
        },
        "mesh_0_view": {
            "buffer": "../../download/w1o2glvpmgqr/w1o2glvpmgqr",
            "byteOffset": 10416,
            "byteLength": 362292,
            "target": 34962
        },
        "mesh_0_view_0": {
            "buffer": "../../download/w1o2glvpmgqr/w1o2glvpmgqr",
            "byteOffset": 372708,
            "byteLength": 362292,
            "target": 34962
        },
        "mesh_0_view_1": {
            "buffer": "../../download/w1o2glvpmgqr/w1o2glvpmgqr",
            "byteOffset": 735000,
            "byteLength": 241528,
            "target": 34962
        },
        "mesh_0_view_2": {
            "buffer": "../../download/w1o2glvpmgqr/w1o2glvpmgqr",
            "byteOffset": 976528,
            "byteLength": 330240,
            "target": 34963
        },
        "mesh_1_view": {
            "buffer": "../../download/w1o2glvpmgqr/w1o2glvpmgqr",
            "byteOffset": 1306768,
            "byteLength": 413904,
            "target": 34962
        },
        "mesh_1_view_0": {
            "buffer": "../../download/w1o2glvpmgqr/w1o2glvpmgqr",
            "byteOffset": 1720672,
            "byteLength": 413904,
            "target": 34962
        },
        "mesh_1_view_1": {
            "buffer": "../../download/w1o2glvpmgqr/w1o2glvpmgqr",
            "byteOffset": 2134576,
            "byteLength": 275936,
            "target": 34962
        },
        "mesh_1_view_2": {
            "buffer": "../../download/w1o2glvpmgqr/w1o2glvpmgqr",
            "byteOffset": 2410512,
            "byteLength": 311652,
            "target": 34963
        }
    },
    "images": {
        "image": {
            "uri": "../../../../../../Downloads/элементы/SPACE TRAVEL TRILOGY/Ricx & Santo - Space Travel vol. 2/2. STICKERS/@prodbyricx - CoDe (Sticker).png"
        }
    },
    "materials": {
        "Mat.7": {
            "values": {
                "ambient": [
                    0.0,
                    0.0,
                    0.0,
                    1.0
                ],
                "diffuse": "texture",
                "specular": [
                    0.20000000298023225,
                    0.20000000298023225,
                    0.20000000298023225,
                    1.0
                ],
                "emission": [
                    0.0,
                    0.0,
                    0.0,
                    1.0
                ],
                "shininess": 32.0
            }
        },
        "Carbon 3 - C": {
            "values": {
                "ambient": [
                    0.0,
                    0.0,
                    0.0,
                    1.0
                ],
                "diffuse": [
                    0.0,
                    0.0,
                    0.0,
                    1.0
                ],
                "specular": [
                    0.5099999904632568,
                    0.5099999904632568,
                    0.5099999904632568,
                    1.0
                ],
                "emission": [
                    0.0,
                    0.0,
                    0.0,
                    1.0
                ],
                "transparency": 0.05000000074505806,
                "shininess": 111.43047332763672
            }
        },
        "Mat.4": {
            "values": {
                "ambient": [
                    0.0,
                    0.0,
                    0.0,
                    1.0
                ],
                "diffuse": [
                    0.7529411911964417,
                    0.7529411911964417,
                    0.7529411911964417,
                    1.0
                ],
                "specular": [
                    0.20000000298023225,
                    0.20000000298023225,
                    0.20000000298023225,
                    1.0
                ],
                "emission": [
                    0.0,
                    0.0,
                    0.0,
                    1.0
                ],
                "shininess": 724.0773315429688
            }
        }
    },
    "meshes": {
        "mesh": {
            "name": "",
            "primitives": [
                {
                    "mode": 4,
                    "material": "Mat.7",
                    "indices": "mesh_accessor_2",
                    "attributes": {
                        "POSITION": "mesh_accessor",
                        "NORMAL": "mesh_accessor_0",
                        "TEXCOORD_0": "mesh_accessor_1"
                    }
                }
            ]
        },
        "mesh_0": {
            "name": "",
            "primitives": [
                {
                    "mode": 4,
                    "material": "Carbon 3 - C",
                    "indices": "mesh_0_accessor_2",
                    "attributes": {
                        "POSITION": "mesh_0_accessor",
                        "NORMAL": "mesh_0_accessor_0",
                        "TEXCOORD_0": "mesh_0_accessor_1"
                    }
                }
            ]
        },
        "mesh_1": {
            "name": "",
            "primitives": [
                {
                    "mode": 4,
                    "material": "Mat.4",
                    "indices": "mesh_1_accessor_2",
                    "attributes": {
                        "POSITION": "mesh_1_accessor",
                        "NORMAL": "mesh_1_accessor_0",
                        "TEXCOORD_0": "mesh_1_accessor_1"
                    }
                }
            ]
        }
    },
    "nodes": {
        "RootNode": {
            "children": [
                "Camera_$AssimpFbx$_Translation",
                "Light_5",
                "Sky",
                "Light_4",
                "Null"
            ]
        },
        "Camera_$AssimpFbx$_Translation": {
            "matrix": [
                1.0,
                0.0,
                0.0,
                0.0,
                0.0,
                1.0,
                0.0,
                0.0,
                0.0,
                0.0,
                1.0,
                0.0,
                36.41620635986328,
                -130.87806701660157,
                1284.4378662109376,
                1.0
            ],
            "children": [
                "Camera_$AssimpFbx$_Rotation"
            ]
        },
        "Camera_$AssimpFbx$_Rotation": {
            "matrix": [
                0.9983288645744324,
                0.0,
                -0.05778806284070015,
                0.0,
                0.010224257595837117,
                0.9842240214347839,
                0.1766311377286911,
                0.0,
                0.056876398622989658,
                -0.17692680656909944,
                0.982579231262207,
                0.0,
                0.0,
                0.0,
                0.0,
                1.0
            ],
            "children": [
                "Camera_$AssimpFbx$_PostRotation"
            ]
        },
        "Camera_$AssimpFbx$_PostRotation": {
            "matrix": [
                -4.371138828673793e-8,
                -0.0,
                -1.0,
                -0.0,
                -0.0,
                1.0,
                -0.0,
                -0.0,
                1.0,
                -0.0,
                -4.371138828673793e-8,
                -0.0,
                -0.0,
                -0.0,
                -0.0,
                1.0
            ],
            "children": [
                "Camera"
            ]
        },
        "Camera": {},
        "Light_5": {
            "matrix": [
                1.0,
                0.0,
                0.0,
                0.0,
                0.0,
                -1.0,
                -8.742277657347586e-8,
                0.0,
                0.0,
                8.742277657347586e-8,
                -1.0,
                0.0,
                691.00048828125,
                217.43850708007813,
                89.64862060546875,
                1.0
            ]
        },
        "Sky": {
            "matrix": [
                0.9732039570808411,
                0.22994357347488404,
                0.0,
                0.0,
                4.4225072493020438e-9,
                -1.871764254701702e-8,
                0.4399999976158142,
                0.0,
                0.22994357347488404,
                -0.9732039570808411,
                -4.371138828673793e-8,
                0.0,
                -227.6302947998047,
                -2.0404412480381357e-13,
                -3332.29345703125,
                1.0
            ]
        },
        "Light_4": {
            "matrix": [
                1.0,
                0.0,
                0.0,
                0.0,
                0.0,
                0.9886149168014526,
                0.1504679024219513,
                0.0,
                0.0,
                -0.1504679024219513,
                0.9886149168014526,
                0.0,
                -130.12936401367188,
                2.229171843859748e-14,
                364.0513916015625,
                1.0
            ]
        },
        "Null": {
            "matrix": [
                0.8632686734199524,
                0.1393558531999588,
                0.48512592911720278,
                0.0,
                -0.1840871423482895,
                0.9818547368049622,
                0.04553345963358879,
                0.0,
                -0.46997785568237307,
                -0.12861305475234986,
                0.8732580542564392,
                0.0,
                -7.8495073318481449,
                0.8662502765655518,
                -2.85416841506958,
                1.0
            ],
            "children": [
                "Extrude",
                "pack",
                "mak"
            ]
        },
        "Extrude": {
            "matrix": [
                0.9986678957939148,
                -0.05159922316670418,
                0.0,
                0.0,
                0.05159922316670418,
                0.9986678957939148,
                0.0,
                0.0,
                0.0,
                0.0,
                1.0,
                0.0,
                42.0947265625,
                -58.30876159667969,
                -2.883899211883545,
                1.0
            ],
            "meshes": [
                "mesh"
            ]
        },
        "pack": {
            "matrix": [
                1.0,
                0.0,
                0.0,
                0.0,
                0.0,
                1.0,
                0.0,
                0.0,
                0.0,
                0.0,
                1.0,
                0.0,
                -3.340651512145996,
                107.10066223144531,
                -4.261849880218506,
                1.0
            ],
            "children": [
                "pack_2"
            ]
        },
        "pack_2": {
            "meshes": [
                "mesh_0"
            ]
        },
        "mak": {
            "matrix": [
                0.9981233477592468,
                -0.05682557076215744,
                -0.022816209122538568,
                0.0,
                0.05707312375307083,
                0.9983163475990295,
                0.01034899428486824,
                0.0,
                0.022189706563949586,
                -0.011631766334176064,
                0.999686062335968,
                0.0,
                -46.60358428955078,
                -47.92565155029297,
                4.291581153869629,
                1.0
            ],
            "meshes": [
                "mesh_1"
            ]
        }
    },
    "samplers": {
        "sampler": {
            "wrapS": 10497,
            "wrapT": 10497,
            "magFilter": 9729,
            "minFilter": 9729
        }
    },
    "scenes": {
        "defaultScene": {
            "nodes": [
                "RootNode"
            ]
        }
    },
    "textures": {
        "texture": {
            "source": "image",
            "sampler": "sampler"
        }
    },
    "scene": "defaultScene"
}